<svg xmlns="http://www.w3.org/2000/svg" viewbox="0 0 284 245" width="284" height="245"><defs><radialGradient id="18281908918569173759" cx="148.6656593412635" cy="157.91998537443544" r="131.14801740451804" gradientTransform="matrix(0.003536043,0,0,0.004094448,-0.026186259,-0.1437763)"><stop offset="0.204918" stop-color="#0b0042" /><stop offset="1" stop-color="#716cd7" /></radialGradient><radialGradient id="15267493561058484870" cx="140.99667688101357" cy="130.70716474502794" r="88.70042888000657" gradientTransform="matrix(0.006969538,0,0,0.006969538,-0.545430723,-0.545430723)"><stop stop-color="#535353" /><stop offset="0.95" stop-color="#000000" /></radialGradient></defs><g transform="matrix(1,0,0,1,-7.704717794,-27.111111111)">
<g>
	<g>
		<g transform="matrix(1.006324332,0,0,1.006324332,0.252355477,-8.22590831)">
			<path d="M218.917654,35.795517C218.917654,35.795517 290.207558,157.912100 290.207558,157.912100 C290.207558,157.912100 220.096447,279.348107 220.096447,279.348107 C220.096447,279.348107 78.695431,278.667531 78.695431,278.667531 C78.695431,278.667531 7.405527,156.550948 7.405527,156.550948 C7.405527,156.550948 77.516638,35.114941 77.516638,35.114941 C77.516638,35.114941 218.917654,35.795517 218.917654,35.795517 Z" transform="" fill="url('#18281908918569173759')" stroke="#ffffff" stroke-width="15" stroke-linecap="round" stroke-linejoin="round"/>
			<path d="M42.042053,245.813381C42.042053,245.813381 164.839213,175.702270 164.839213,175.702270 C164.839213,175.702270 287.636372,245.813381 287.636372,245.813381 C287.636372,245.813381 164.839213,175.702270 164.839213,175.702270 C164.839213,175.702270 164.839213,35.480048 164.839213,35.480048 C164.839213,35.480048 164.839213,175.702270 164.839213,175.702270 C164.839213,175.702270 42.042053,245.813381 42.042053,245.813381 Z" transform="matrix(0.866025404,0.5,-0.5,0.866025404,93.902732017,-77.35071174)" fill="#ffffff" stroke="#ffffff" stroke-width="15" stroke-linecap="round" stroke-miterlimit="0.1"/>
		</g>
		<path d="M150.000000,78.259235C189.585462,78.259235 221.740765,110.414538 221.740765,150.000000 C221.740765,189.585462 189.585462,221.740765 150.000000,221.740765 C110.414538,221.740765 78.259235,189.585462 78.259235,150.000000 C78.259235,110.414538 110.414538,78.259235 150.000000,78.259235 Z" transform="matrix(1,0,0,1,0,0)" fill="url('#15267493561058484870')"/>
	</g>
</g></g></svg>