<svg xmlns="http://www.w3.org/2000/svg" viewbox="0 0 284 245" width="284" height="245"><defs><radialGradient id="12233512848932768486" cx="143.0000000000007" cy="135.00000000000074" r="68.96375859826699" gradientTransform="matrix(0.008964143,0,0,0.008964143,-0.844621514,-0.844621514)"><stop stop-color="#535353" /><stop offset="0.95" stop-color="#000000" /></radialGradient></defs><g transform="matrix(1,0,0,1,-7.704717794,-27.111111111)">
<g>
	<g>
		<g transform="matrix(1.006324332,0,0,1.006324332,0.252355477,-8.22590831)">
			<path d="M218.917654,35.795517C218.917654,35.795517 290.207558,157.912100 290.207558,157.912100 C290.207558,157.912100 220.096447,279.348107 220.096447,279.348107 C220.096447,279.348107 78.695431,278.667531 78.695431,278.667531 C78.695431,278.667531 7.405527,156.550948 7.405527,156.550948 C7.405527,156.550948 77.516638,35.114941 77.516638,35.114941 C77.516638,35.114941 218.917654,35.795517 218.917654,35.795517 Z" transform="" fill="#ffffff" stroke="#000000" stroke-width="15" stroke-linecap="round" stroke-linejoin="round"/>
			<path d="M42.042053,245.813381C42.042053,245.813381 164.839213,175.702270 164.839213,175.702270 C164.839213,175.702270 287.636372,245.813381 287.636372,245.813381 C287.636372,245.813381 164.839213,175.702270 164.839213,175.702270 C164.839213,175.702270 164.839213,35.480048 164.839213,35.480048 C164.839213,35.480048 164.839213,175.702270 164.839213,175.702270 C164.839213,175.702270 42.042053,245.813381 42.042053,245.813381 Z" transform="matrix(0.866025404,0.5,-0.5,0.866025404,93.902732017,-77.35071174)" fill="#ffffff" stroke="#000000" stroke-width="15" stroke-linecap="round" stroke-miterlimit="0.1"/>
		</g>
		<path d="M150.000000,94.222222C180.777329,94.222222 205.777778,119.222671 205.777778,150.000000 C205.777778,180.777329 180.777329,205.777778 150.000000,205.777778 C119.222671,205.777778 94.222222,180.777329 94.222222,150.000000 C94.222222,119.222671 119.222671,94.222222 150.000000,94.222222 Z" transform="matrix(1,0,0,1,0,0)" fill="url('#12233512848932768486')"/>
	</g>
</g></g></svg>